# xmcd
#
# Track frame offsets:
#	150
#	15830
#	44910
#	85067
#
# Disc length: 1328 seconds
#
# Revision: 1
# Processed by: cddbd v1.5.2PL0 Copyright (c) Steve Scherf et al.
# Submitted via: audiograbber 1.83.01
#
DISCID=25052e04
DTITLE=Cut and Paste - Planet Boogie
DYEAR=1996
DGENRE=Other
TTITLE0=Planet Boogie (Roswell Edit)
TTITLE1=Planet Boogie (Roswell's Crashed On Boogieland)
TTITLE2=Planet Boogie (Afros To The Stars Original)
TTITLE3=Forget It (Logical Toolbox Edit)
EXTD=
EXTT0=
EXTT1=
EXTT2=
EXTT3=
PLAYORDER=
